<!DOCTYPE svg PUBLIC "-//W3C//DTD SVG 1.1//EN" "http://www.w3.org/Graphics/SVG/1.1/DTD/svg11.dtd">
<!-- Uploaded to: SVG Repo, www.svgrepo.com, Transformed by: SVG Repo Mixer Tools -->
<svg fill="#ffffff" height="800px" width="800px" version="1.1" id="Capa_1" xmlns="http://www.w3.org/2000/svg" xmlns:xlink="http://www.w3.org/1999/xlink" viewBox="0 0 49 49" xml:space="preserve" stroke="#ffffff">
<g id="SVGRepo_bgCarrier" stroke-width="0"/>
<g id="SVGRepo_tracerCarrier" stroke-linecap="round" stroke-linejoin="round"/>
<g id="SVGRepo_iconCarrier"> <g> <g> <path d="M47.277,19.002h-46c-0.432,0-0.814,0.277-0.95,0.687s0.008,0.86,0.355,1.117l23,17c0.176,0.13,0.385,0.196,0.594,0.196 s0.418-0.065,0.594-0.196l23-17c0.347-0.257,0.491-0.707,0.355-1.117S47.709,19.002,47.277,19.002z M24.277,35.758L4.313,21.002 h39.93L24.277,35.758z"/> <path d="M48,10.998H1c-0.552,0-1,0.448-1,1v4c0,0.552,0.448,1,1,1h47c0.552,0,1-0.448,1-1v-4C49,11.446,48.552,10.998,48,10.998z M47,14.998H2v-2h45V14.998z"/> </g> </g> </g>
</svg>